<svg width="59" height="24" viewBox="0 0 59 24" fill="none" xmlns="http://www.w3.org/2000/svg">
<path d="M24.6667 8.9989H28.5329V10.999H24.6667V8.9989Z" fill="#332208"/>
<path d="M57.6704 6.00937L51.1041 5.03941C49.9067 4.27858 48.6642 3.59749 47.3831 2.99981C43.1523 1.01758 38.5605 -0.00526887 33.9156 2.04093e-05H32.7749C27.2934 0.00408898 21.8995 1.42689 17.0851 4.13862L13.7712 6.00856C9.89211 6.05372 6.08775 7.12092 2.71764 9.10803C1.34804 9.92054 0.50236 11.428 0.5 13.0607V18.998C0.5 19.5505 0.932671 19.9981 1.46682 19.9981H4.71265C5.76836 23.1134 9.06571 24.7539 12.0775 23.6619C13.7354 23.061 15.0385 21.7126 15.6195 19.9981H41.446C42.5018 23.1134 45.7991 24.7539 48.8109 23.6619C50.4684 23.061 51.7719 21.7126 52.3529 19.9981H52.6998C52.8229 19.9981 52.9449 19.9741 53.0593 19.9269L56.1903 18.6274C57.589 18.0545 58.5051 16.6541 58.5 15.0987V6.99927C58.5 6.50208 58.1464 6.08016 57.6704 6.00937ZM13.9549 18.7983C13.5273 20.9624 11.4847 22.3583 9.39258 21.916C7.30002 21.4738 5.95048 19.361 6.37804 17.1964C6.80599 15.0323 8.84859 13.6364 10.9408 14.0787C12.7411 14.4591 14.0336 16.0975 14.0332 17.9984C14.0332 18.2669 14.0068 18.535 13.9549 18.7983ZM31.4332 17.9984H15.9664C15.9664 14.6849 13.37 11.9988 10.1667 11.9988C6.96332 11.9988 4.36651 14.6849 4.36651 17.9984H2.43325V13.0607C2.43443 12.1448 2.9088 11.299 3.67738 10.8441C6.83195 8.98109 10.4011 8.00055 14.0332 7.99933H31.4332V17.9984ZM31.4332 5.99961H17.8246L18.011 5.89423C22.1438 3.57105 26.7344 2.25404 31.4332 2.04369V5.99961ZM33.3665 1.99975H33.9136C37.8092 1.99527 41.6695 2.76017 45.2878 4.25376L43.6 5.99961H33.3665V1.99975ZM50.6883 18.7983C50.2607 20.9624 48.2181 22.3583 46.1256 21.916C44.0334 21.4738 42.6839 19.361 43.1114 17.1964C43.539 15.0323 45.582 13.6364 47.6742 14.0787C49.4745 14.4591 50.767 16.0975 50.7666 17.9984C50.7666 18.2669 50.7402 18.535 50.6883 18.7983ZM56.5667 8.99899H53.6666V10.9991H56.5667V15.0987C56.5691 15.8355 56.1348 16.4987 55.4725 16.7692L52.6998 17.9211C52.6998 17.8291 52.6884 17.738 52.6825 17.646C52.6766 17.5541 52.6747 17.4463 52.6652 17.3462C52.6554 17.2461 52.6361 17.146 52.6208 17.0463C52.605 16.9462 52.5936 16.8461 52.5744 16.7554C52.5551 16.6643 52.5268 16.5634 52.5016 16.4682C52.4764 16.3734 52.4571 16.2773 52.428 16.1842C52.3993 16.0914 52.3643 16.0023 52.3317 15.9112C52.2986 15.8204 52.2687 15.7265 52.2349 15.6361C52.2011 15.5462 52.1554 15.4644 52.1149 15.3794C52.0744 15.2944 52.0347 15.2012 51.9895 15.1153C51.9438 15.0295 51.8927 14.9563 51.849 14.8765C51.8058 14.7964 51.7527 14.7052 51.6976 14.6235C51.6421 14.5413 51.591 14.4766 51.5379 14.4025C51.4848 14.3285 51.4246 14.2414 51.3629 14.1645C51.3011 14.0876 51.2433 14.0274 51.1831 13.9643C51.1233 13.9017 51.0565 13.8166 50.99 13.7467C50.9231 13.6767 50.8574 13.6214 50.791 13.5595C50.7241 13.4977 50.6525 13.4244 50.5789 13.3593C50.5058 13.2946 50.4311 13.2446 50.3579 13.1876C50.2843 13.1307 50.2108 13.0696 50.1337 13.0163C50.0562 12.9635 49.9693 12.9167 49.8863 12.8605C49.8029 12.8044 49.7352 12.7604 49.657 12.7177C49.5787 12.6746 49.4811 12.6294 49.3923 12.5855C49.3034 12.5415 49.2337 12.5025 49.1515 12.4667C49.0693 12.4305 48.958 12.3926 48.8616 12.3568C48.7649 12.3206 48.7019 12.2925 48.6197 12.2657C48.5096 12.2307 48.3967 12.2055 48.2842 12.1766C48.2107 12.1587 48.1403 12.1347 48.0659 12.1188C47.9471 12.0936 47.8252 12.0798 47.7044 12.0614C47.6329 12.0517 47.5644 12.0354 47.4928 12.0285C47.2993 12.0085 47.1062 11.9976 46.9032 11.9976C43.701 12.0008 41.1062 14.6849 41.1031 17.9972H33.3669V7.99893H44C44.2564 7.99893 44.5023 7.89355 44.6832 7.70599L47.19 5.11305C48.2421 5.63099 49.2652 6.20995 50.2544 6.8471C50.3685 6.92074 50.496 6.96916 50.6293 6.98909L56.5667 7.86588V8.99899Z" fill="#332208"/>
</svg>
